<svg xmlns="http://www.w3.org/2000/svg" viewBox="0 0 512 512" role="img" aria-label="彩虹游乐园遮罩图标">
  <defs>
    <linearGradient id="mask-bg" x1="256" x2="256" y1="24" y2="488" gradientUnits="userSpaceOnUse">
      <stop offset="0" stop-color="#d9f3ff" />
      <stop offset="1" stop-color="#fff2cf" />
    </linearGradient>
    <linearGradient id="mask-ground" x1="256" x2="256" y1="286" y2="462" gradientUnits="userSpaceOnUse">
      <stop offset="0" stop-color="#82da71" />
      <stop offset="1" stop-color="#4fc78f" />
    </linearGradient>
  </defs>
  <rect width="512" height="512" rx="160" fill="url(#mask-bg)" />
  <circle cx="376" cy="144" r="42" fill="#ffd447" />
  <path
    d="M144 318c24-83 97-138 184-138 48 0 95 17 133 47"
    fill="none"
    stroke="#ff7b5f"
    stroke-linecap="round"
    stroke-width="28"
  />
  <path
    d="M164 322c20-65 81-108 154-108 39 0 77 13 107 35"
    fill="none"
    stroke="#ffb703"
    stroke-linecap="round"
    stroke-width="23"
  />
  <path
    d="M184 326c15-48 60-79 114-79 28 0 54 8 77 24"
    fill="none"
    stroke="#4ecdc4"
    stroke-linecap="round"
    stroke-width="19"
  />
  <path
    d="M204 330c10-31 39-50 74-50 19 0 38 6 53 15"
    fill="none"
    stroke="#56a9ff"
    stroke-linecap="round"
    stroke-width="16"
  />
  <path d="M74 386c42-24 95-30 150-20 51 10 98 8 147-11 48-18 96-16 141 6v125H74z" fill="url(#mask-ground)" />
  <path d="M178 358c0-53 43-96 96-96s96 43 96 96v74H178z" fill="#fff8ef" />
  <path d="M204 296h140c12 0 22 10 22 22v114H182V318c0-12 10-22 22-22z" fill="#ff9a62" />
  <path d="M239 350h58v82h-58z" fill="#ffd7b8" />
  <rect x="220" y="328" width="30" height="24" rx="9" fill="#f5fbff" />
  <rect x="292" y="328" width="30" height="24" rx="9" fill="#f5fbff" />
  <path d="M220 320l52-46 52 46" fill="none" stroke="#c85c43" stroke-linecap="round" stroke-linejoin="round" stroke-width="14" />
</svg>
